<svg width="32" height="32" viewBox="0 0 32 32" fill="none" xmlns="http://www.w3.org/2000/svg">
<path d="M7 14H25V26H7V14Z" fill="#4C586A"/>
<path d="M2 26.5C2 26.2239 2.22386 26 2.5 26H29.5C29.7761 26 30 26.2239 30 26.5V29.5C30 29.7761 29.7761 30 29.5 30H2.5C2.22386 30 2 29.7761 2 29.5V26.5Z" fill="#CFDBE9"/>
<path d="M3 10.5C3 10.2239 3.22386 10 3.5 10H28.5C28.7761 10 29 10.2239 29 10.5V13.5C29 13.7761 28.7761 14 28.5 14H3.5C3.22386 14 3 13.7761 3 13.5V10.5Z" fill="#CFDBE9"/>
<path d="M27 10H5L14 3.00002C15.6 1.40002 17.3333 2.33335 18 3.00002L27 10Z" fill="#A3B5C9"/>
<path d="M14 14H18V26H14V14Z" fill="#A3B5C9"/>
<path d="M5 14H8V26H5V14Z" fill="#A3B5C9"/>
<path d="M24 14H27V26H24V14Z" fill="#A3B5C9"/>
</svg>
