<svg width="32" height="32" viewBox="0 0 32 32" fill="none" xmlns="http://www.w3.org/2000/svg">
<path d="M24.0085 8V2.68222C24.0085 2.30612 24.3044 2 24.6681 2H27.3404C27.704 2 28 2.30612 28 2.68222V8H24H24.0085Z" fill="#4C7AFB"/>
<path d="M24.0085 4V2.67532C24.0085 2.30303 24.3044 2 24.6681 2H27.3404C27.704 2 28 2.30303 28 2.67532V4H24H24.0085Z" fill="#575F6C"/>
<path d="M17.0085 8V2.68222C17.0085 2.30612 17.3044 2 17.6681 2H20.3404C20.704 2 21 2.30612 21 2.68222V8H17H17.0085Z" fill="#4C7AFB"/>
<path d="M17.0085 4V2.67532C17.0085 2.30303 17.3044 2 17.6681 2H20.3404C20.704 2 21 2.30303 21 2.67532V4H17H17.0085Z" fill="#575F6C"/>
<path d="M30.9912 12.0088V18H7L7.79688 13.4043C8.08095 12.4346 8.56648 12 9.40039 12L30.9912 12.0088ZM31 12.0098L30.9912 12.0088V12L31 12.0098ZM30.0811 8C30.5886 8.00004 30.9998 8.32348 31 8.72266V11.9932H11L11.7617 8.86035C12.033 8.19974 12.4792 8.00005 13.2754 8H30.0811Z" fill="#CFDBE9"/>
<path d="M31 28.9199C31 29.5131 30.5315 30 29.9326 30H10.8154C9.87898 29.9999 9.46397 29.5662 8.97266 28.9199L6.11719 24.6543L3 20H31V28.9199Z" fill="#4C7AFB"/>
<path d="M17.5 14H16V16H17.5V14Z" fill="#575F6C"/>
<path d="M14 14H12.5V16H14V14Z" fill="#575F6C"/>
<path d="M21 14H19.5V16H21V14Z" fill="#575F6C"/>
<path d="M21 10H19.5V12H21V10Z" fill="#575F6C"/>
<path d="M24.5 14H23V16H24.5V14Z" fill="#575F6C"/>
<path d="M28 14H26.5V16H28V14Z" fill="#575F6C"/>
<path d="M28 10H23V12H28V10Z" fill="#575F6C"/>
<path d="M31 18H1.86686C1.38887 18 1 18.4486 1 19H1.0081C1.0081 19.5514 1.39698 20 1.87497 20H31V18.0093V18Z" fill="#575F6C"/>
</svg>
