<svg width="32" height="32" viewBox="0 0 32 32" fill="none" xmlns="http://www.w3.org/2000/svg">
<path d="M19.4697 21.3597L25.3059 29H17.6655L14.9275 25.2649L10.6191 29H3L12.0413 21.3597H19.4691H19.4697ZM29.2937 13.5919L28.3385 18.0484H25.918L25.4085 20.5102H19.6184L21.6132 11.0445H27.4033L26.8726 13.5913H29.293L29.2937 13.5919Z" fill="black"/>
<path d="M12.2417 3.07434C13.3718 3.80121 15.5074 5.70188 15.8554 9.82201L17.3741 8.4205C17.5684 8.24075 17.8733 8.25958 18.0445 8.46179C18.7295 9.27124 20.2239 11.4488 20.0022 14.8269C20.0022 14.8269 19.9069 21.4756 10.9227 20.9515C10.9227 20.9515 3.62002 20.9746 4.51207 15.5896C4.51207 15.5896 4.775 11.5405 7.35579 9.35747C7.69888 9.06721 8.02983 8.7648 8.3371 8.43689C9.3518 7.35418 11.2592 5.12378 11.5312 3.39193C11.5834 3.05977 11.9593 2.89277 12.2423 3.07494L12.2417 3.07434Z" fill="#F03255"/>
<path d="M12.6047 12.3366C14.0985 12.3366 14.917 13.3495 14.6899 14.9168C14.4628 16.4841 13.351 17.4969 11.8571 17.4969C10.3633 17.4969 9.54475 16.4841 9.77186 14.9168C9.99897 13.3495 11.1108 12.3366 12.6047 12.3366Z" fill="white"/>
</svg>
