<svg width="32" height="32" viewBox="0 0 32 32" fill="none" xmlns="http://www.w3.org/2000/svg">
<path d="M19.8085 11.3388H6.30828C3.93835 11.3388 2 9.23982 2 6.6735C2 4.10717 3.93835 2 6.30828 2H19.8085V11.3388Z" fill="#44D48C"/>
<path d="M19.8085 20.6695H6.30828C3.93835 20.6695 2 18.5705 2 16.0042C2 13.4378 3.93835 11.3389 6.30828 11.3389H19.8085V20.6777V20.6695Z" fill="#FFC300"/>
<path d="M19.8085 30H6.30828C3.93835 30 2 27.9011 2 25.3347C2 22.7684 3.93835 20.6694 6.30828 20.6694H19.8085V30.0082V30Z" fill="#4C7AFB"/>
<path d="M24.9878 11.3388H19.8239C17.454 11.3388 15.5156 9.2398 15.5156 6.67348C15.5156 4.10715 17.454 2.00818 19.8239 2.00818H27.4031C28.819 2.00818 29.9699 3.26264 29.9699 4.78768V8.55928C29.9699 10.0925 28.8115 11.3388 27.4031 11.3388H24.9878Z" fill="#18BC7B"/>
<path d="M29.9997 9.32178H19.7855C18.4377 9.32178 17.3398 8.13291 17.3398 6.67346C17.3398 5.21402 18.4377 4.02515 19.7855 4.02515H29.9997" fill="#EEF0F4"/>
<path d="M24.9878 20.6695H19.8239C17.454 20.6695 15.5156 18.5705 15.5156 16.0042C15.5156 13.4378 17.454 11.3389 19.8239 11.3389H27.4031C28.819 11.3389 29.9699 12.5933 29.9699 14.1184V17.89C29.9699 19.4232 28.8115 20.6695 27.4031 20.6695H24.9878Z" fill="#FF8700"/>
<path d="M29.9997 18.6443H19.7855C18.4377 18.6443 17.3398 17.4554 17.3398 15.996C17.3398 14.5365 18.4377 13.3477 19.7855 13.3477H29.9997" fill="#EEF0F4"/>
<path d="M24.9878 30H19.8239C17.454 30 15.5156 27.9011 15.5156 25.3347C15.5156 22.7684 17.454 20.6694 19.8239 20.6694H27.4031C28.819 20.6694 29.9699 21.9239 29.9699 23.4489V27.2205C29.9699 28.7538 28.8115 30 27.4031 30H24.9878Z" fill="#1B55F6"/>
<path d="M29.9997 27.9749H19.7855C18.4377 27.9749 17.3398 26.786 17.3398 25.3265C17.3398 23.8671 18.4377 22.6782 19.7855 22.6782H29.9997" fill="#EEF0F4"/>
</svg>
