<svg width="32" height="32" viewBox="0 0 32 32" fill="none" xmlns="http://www.w3.org/2000/svg">
<path d="M24 19.1649C24 24.6878 19.5228 29.1649 14 29.1649C8.47715 29.1649 4 24.6878 4 19.1649C4 13.6421 8.47715 9.16492 14 9.16492C19.5228 9.16492 24 13.6421 24 19.1649Z" fill="#FFD7C2"/>
<path d="M14 25.1649H20V29.1649H14V25.1649Z" fill="#FFD7C2"/>
<path d="M14 9.16492H20V13.1649H14V9.16492Z" fill="#FFD7C2"/>
<path d="M10.5 1.66488C9.5 6.16491 7.5 10.1649 6 13.1649L14.5 10.1649C15 8.66489 15.5 6.66489 15.5 4.66489C15.5 2.66489 15 1.16489 14.5 0.664859C13 -0.835123 10.756 0.512962 10.5 1.66488Z" fill="#FFD7C2"/>
<path d="M15 12C15 9.50003 17.8702 9.18105 19.5 9.18103V29.1563C15.9 29.1563 15 28 15 26.5C15 25.5 15.1667 25 16 24.5C14.7077 23.7274 14.7077 22.2843 14.7077 22C14.7077 20.5 15 20 16 19.5C14.5 18.5 14.5 17.5 14.5 17C14.5 15.5 15.1667 14.8334 16 14.5C15.5 14 15 13.5 15 12Z" fill="#F1B99B"/>
<path d="M17 12C17 10.3431 18.3431 9 20 9H24C25.6569 9 27 10.3431 27 12C27 13.6569 25.6569 15 24 15H20C18.3431 15 17 13.6569 17 12Z" fill="#FFD7C2"/>
<path d="M17 17C17 15.3431 18.3431 14 20 14H25C26.6569 14 28 15.3431 28 17C28 18.6569 26.6569 20 25 20H20C18.3431 20 17 18.6569 17 17Z" fill="#FFD7C2"/>
<path d="M17 22C17 20.3431 18.3431 19 20 19H24C25.6569 19 27 20.3431 27 22C27 23.6569 25.6569 25 24 25H20C18.3431 25 17 23.6569 17 22Z" fill="#FFD7C2"/>
<path d="M17 26.6649C17 25.2842 18.1193 24.1649 19.5 24.1649H23.5C24.8807 24.1649 26 25.2842 26 26.6649C26 28.0456 24.8807 29.1649 23.5 29.1649H19.5C18.1193 29.1649 17 28.0456 17 26.6649Z" fill="#FFD7C2"/>
<path d="M24.5 14C24.7761 14 25 14.2239 25 14.5C25 14.7761 24.7761 15 24.5 15L16.5 15C16.2239 15 16 14.7761 16 14.5C16 14.2239 16.2239 14 16.5 14L24.5 14Z" fill="#F1B99B"/>
<path d="M24.5 19C24.7761 19 25 19.2239 25 19.5C25 19.7761 24.7761 20 24.5 20L16.5 20C16.2239 20 16 19.7761 16 19.5C16 19.2239 16.2239 19 16.5 19L24.5 19Z" fill="#F1B99B"/>
<path d="M24.5 24C24.7761 24 25 24.2239 25 24.5C25 24.7761 24.7761 25 24.5 25L16.5 25C16.2239 25 16 24.7761 16 24.5C16 24.2239 16.2239 24 16.5 24L24.5 24Z" fill="#F1B99B"/>
</svg>
