<svg width="32" height="32" viewBox="0 0 32 32" fill="none" xmlns="http://www.w3.org/2000/svg">
<path d="M5.62373 8.60744L2.2207 28.965L3.76724 29.2235L7.17027 8.86596L5.62373 8.60744Z" fill="#FF8700" stroke="#FF8700" stroke-width="0.1" stroke-miterlimit="10"/>
<path d="M11.8846 8.60864L10.3379 8.86609L13.7267 29.226L15.2734 28.9685L11.8846 8.60864Z" fill="#FF8700" stroke="#FF8700" stroke-width="0.1" stroke-miterlimit="10"/>
<path d="M11.473 2H6.52703C6.23596 2 6 2.40002 6 2.89347V5.10653C6 5.59998 6.23596 6 6.52703 6H11.473C11.764 6 12 5.59998 12 5.10653V2.89347C12 2.40002 11.764 2 11.473 2Z" fill="#FF8700" stroke="#FF8700" stroke-width="0.1" stroke-miterlimit="10"/>
<path d="M16.4603 27H1.5397C1.24163 27 1 27.3 1 27.6701V29.3299C1 29.7 1.24163 30 1.5397 30H16.4603C16.7584 30 17 29.7 17 29.3299V27.6701C17 27.3 16.7584 27 16.4603 27Z" fill="#FF8700" stroke="#FF8700" stroke-width="0.1" stroke-miterlimit="10"/>
<path d="M11.6239 14.1601L6.25586 9.67207L6.92786 8.87207L12.2879 13.3601L11.6239 14.1601Z" fill="#FF8700" stroke="#FF8700" stroke-width="0.1" stroke-miterlimit="10"/>
<path d="M6.02446 13.242L5.24902 14.1787L12.5884 20.2546L13.3638 19.318L6.02446 13.242Z" fill="#FF8700" stroke="#FF8700" stroke-width="0.1" stroke-miterlimit="10"/>
<path d="M5.13945 17.6572L4.45508 18.4509L13.6582 26.3865L14.3426 25.5928L5.13945 17.6572Z" fill="#FF8700" stroke="#FF8700" stroke-width="0.1" stroke-miterlimit="10"/>
<path d="M10.9129 8.55317L4.99023 13.5299L5.65929 14.3261L11.5819 9.34939L10.9129 8.55317Z" fill="#FF8700" stroke="#FF8700" stroke-width="0.1" stroke-miterlimit="10"/>
<path d="M11.8722 12.9893L3.8291 19.5444L4.48613 20.3506L12.5292 13.7955L11.8722 12.9893Z" fill="#FF8700" stroke="#FF8700" stroke-width="0.1" stroke-miterlimit="10"/>
<path d="M12.7054 17.3408L3.5 25.2615L4.18354 26.0559L13.3889 18.1352L12.7054 17.3408Z" fill="#FF8700" stroke="#FF8700" stroke-width="0.1" stroke-miterlimit="10"/>
<path d="M25.5 19.544C25.2222 19.544 25 19.352 25 19.112V11.136C25 10.896 25.2222 10.704 25.5 10.704C25.7778 10.704 26 10.896 26 11.136V19.104C26 19.344 25.7778 19.536 25.5 19.536V19.544Z" fill="#4C586A" stroke="#4C586A" stroke-width="0.1" stroke-miterlimit="10"/>
<path d="M30.5255 19H20.4745C20.2124 19 20 19.2542 20 19.5677V24.4323C20 24.7458 20.2124 25 20.4745 25H30.5255C30.7876 25 31 24.7458 31 24.4323V19.5677C31 19.2542 30.7876 19 30.5255 19Z" fill="#A7B6C8"/>
<path d="M22.5532 25.6648C22.4821 25.6648 22.411 25.6563 22.3399 25.6308C22.0555 25.5374 21.9235 25.2655 22.0454 25.0276L25.0516 18.9528C25.1735 18.7149 25.4883 18.6044 25.7727 18.6979C26.0571 18.7914 26.1891 19.0632 26.0672 19.3011L23.061 25.3759C22.9696 25.5543 22.7665 25.6648 22.5532 25.6648Z" fill="#4C586A" stroke="#4C586A" stroke-width="0.1" stroke-miterlimit="10"/>
<path d="M28.4543 25.6647C28.2308 25.6647 28.0277 25.5542 27.9363 25.3758L25.052 19.301C24.9402 19.0631 25.0824 18.7913 25.3566 18.6978C25.641 18.6043 25.9558 18.7233 26.0777 18.9527L28.9621 25.0275C29.0738 25.2654 28.9316 25.5372 28.6574 25.6307C28.5863 25.6562 28.5253 25.6647 28.4543 25.6647Z" fill="#4C586A" stroke="#4C586A" stroke-width="0.1" stroke-miterlimit="10"/>
<path d="M25.5 21C26.8807 21 28 19.8807 28 18.5C28 17.1193 26.8807 16 25.5 16C24.1193 16 23 17.1193 23 18.5C23 19.8807 24.1193 21 25.5 21Z" fill="#FFC300"/>
<path d="M28.924 5H3.07597C2.48005 5 2 5.42884 2 5.96118V8.03882C2 8.57116 2.48005 9 3.07597 9H28.924C29.52 9 30 8.57116 30 8.03882V5.96118C30 5.42884 29.52 5 28.924 5ZM14 6H17V8H14V6ZM18 6H21V8H18V6ZM22 6H25V8H22V6ZM29 8H26V6H29V8Z" fill="#FFC300"/>
<path d="M23 9H28V11C28 11.5523 27.5523 12 27 12H24C23.4477 12 23 11.5523 23 11V9Z" fill="#4C586A"/>
</svg>
