<svg width="32" height="32" viewBox="0 0 32 32" fill="none" xmlns="http://www.w3.org/2000/svg">
<path d="M4 8C4 7.44772 4.44772 7 5 7H27C27.5523 7 28 7.44772 28 8V28C28 28.5523 27.5523 29 27 29H5C4.44772 29 4 28.5523 4 28V8Z" fill="#FACC15"/>
<path d="M2 8C2 7.44772 2.44772 7 3 7H29C29.5523 7 30 7.44772 30 8V14C30 14.5523 29.5523 15 29 15H3C2.44771 15 2 14.5523 2 14V8Z" fill="#FF8700"/>
<path d="M13 7H19V29H13V7Z" fill="#FC3B3B"/>
<path d="M8 2.28077C8 1.6302 8.61139 1.15284 9.24254 1.31062L16 2.99999V6.99999H8V2.28077Z" fill="#FC3B3B"/>
<path d="M16 2.99999L22.7575 1.31062C23.3886 1.15284 24 1.6302 24 2.28077V6.99999H16V2.99999Z" fill="#FC3B3B"/>
</svg>
