<svg width="32" height="32" viewBox="0 0 32 32" fill="none" xmlns="http://www.w3.org/2000/svg">
<path d="M15 3C15 2.44772 15.4477 2 16 2C16.5523 2 17 2.44772 17 3V27C17 27.5523 16.5523 28 16 28C15.4477 28 15 27.5523 15 27V3Z" fill="#A7B6C8"/>
<path d="M9 29C9 28.4477 9.44772 28 10 28H22C22.5523 28 23 28.4477 23 29V29.5C23 29.7761 22.7761 30 22.5 30H9.5C9.22386 30 9 29.7761 9 29.5V29Z" fill="#A7B6C8"/>
<path d="M13 28C13 26.4 14.3333 26 15 26H17C18.6 26 19 27.3333 19 28H13Z" fill="#A7B6C8"/>
<rect x="6" y="8" width="20" height="1" fill="#A7B6C8"/>
<path fill-rule="evenodd" clip-rule="evenodd" d="M6.00014 8.5C6.20856 8.5 6.39512 8.62929 6.4683 8.82444L10.9683 20.8244C11.0653 21.083 10.9343 21.3712 10.6757 21.4682C10.4171 21.5651 10.1289 21.4341 10.032 21.1756L6.00014 10.424L1.9683 21.1756C1.87134 21.4341 1.58313 21.5651 1.32457 21.4682C1.06601 21.3712 0.935011 21.083 1.03197 20.8244L5.53197 8.82444C5.60515 8.62929 5.79171 8.5 6.00014 8.5Z" fill="#A7B6C8"/>
<path d="M11 21H1C1 23 2.5 24 4.5 24H7.5C10.3 24 11 22 11 21Z" fill="#4C586A"/>
<path fill-rule="evenodd" clip-rule="evenodd" d="M26.0001 8.5C26.2086 8.5 26.3951 8.62929 26.4683 8.82444L30.9683 20.8244C31.0653 21.083 30.9343 21.3712 30.6757 21.4682C30.4171 21.5651 30.1289 21.4341 30.032 21.1756L26.0001 10.424L21.9683 21.1756C21.8713 21.4341 21.5831 21.5651 21.3246 21.4682C21.066 21.3712 20.935 21.083 21.032 20.8244L25.532 8.82444C25.6052 8.62929 25.7917 8.5 26.0001 8.5Z" fill="#A7B6C8"/>
<circle cx="6" cy="9" r="1" fill="#4C586A"/>
<circle cx="26" cy="9" r="1" fill="#4C586A"/>
<path d="M31 21H21C21 23 22.5 24 24.5 24H27.5C30.3 24 31 22 31 21Z" fill="#4C586A"/>
</svg>
